<svg width="20" height="15" viewBox="0 0 20 15" fill="none" xmlns="http://www.w3.org/2000/svg">
<mask id="mask0_2616_232" style="mask-type:luminance" maskUnits="userSpaceOnUse" x="0" y="0" width="20" height="15">
<path d="M18.5714 0H1.42857C0.639593 0 0 0.639593 0 1.42857V12.8571C0 13.6461 0.639593 14.2857 1.42857 14.2857H18.5714C19.3604 14.2857 20 13.6461 20 12.8571V1.42857C20 0.639593 19.3604 0 18.5714 0Z" fill="white"/>
</mask>
<g mask="url(#mask0_2616_232)">
<path d="M18.5713 0.178589H1.42847C0.738111 0.178589 0.178467 0.738233 0.178467 1.42859V12.8572C0.178467 13.5475 0.738111 14.1072 1.42847 14.1072H18.5713C19.2617 14.1072 19.8213 13.5475 19.8213 12.8572V1.42859C19.8213 0.738233 19.2617 0.178589 18.5713 0.178589Z" fill="white" stroke="#F5F5F5" stroke-width="14.2857"/>
<mask id="mask1_2616_232" style="mask-type:alpha" maskUnits="userSpaceOnUse" x="-7" y="-7" width="34" height="29">
<path d="M18.5713 0.178589H1.42847C0.738111 0.178589 0.178467 0.738233 0.178467 1.42859V12.8572C0.178467 13.5475 0.738111 14.1072 1.42847 14.1072H18.5713C19.2617 14.1072 19.8213 13.5475 19.8213 12.8572V1.42859C19.8213 0.738233 19.2617 0.178589 18.5713 0.178589Z" fill="white" stroke="white" stroke-width="14.2857"/>
</mask>
<g mask="url(#mask1_2616_232)">
<path d="M19.9999 0H13.3333V14.2857H19.9999V0Z" fill="#E43D4C"/>
<path fill-rule="evenodd" clip-rule="evenodd" d="M0 14.2857H6.66666V0H0V14.2857Z" fill="#1BB65D"/>
</g>
</g>
</svg>
